<?xml version="1.0" standalone="no"?>
<!DOCTYPE svg PUBLIC "-//W3C//DTD SVG 20010904//EN"
 "http://www.w3.org/TR/2001/REC-SVG-20010904/DTD/svg10.dtd">
<svg version="1.0" xmlns="http://www.w3.org/2000/svg"
 width="300.000000pt" height="300.000000pt" viewBox="0 0 300.000000 300.000000"
 preserveAspectRatio="xMidYMid meet">
<metadata>
Created by potrace 1.10, written by Peter Selinger 2001-2011
</metadata>
<g transform="translate(0.000000,300.000000) scale(0.100000,-0.100000)"
fill="#000000" stroke="none">
<path d="M1170 2964 c-118 -25 -246 -72 -370 -134 l-83 -42 129 -52 c82 -34
135 -50 145 -45 39 19 181 50 264 57 271 22 576 0 698 -52 31 -13 39 -12 99
14 35 15 93 38 129 50 35 13 68 26 72 30 5 4 -27 25 -70 47 -152 79 -353 139
-493 148 -100 7 -70 -6 95 -40 149 -31 385 -117 385 -141 0 -15 -48 -39 -136
-69 -44 -15 -51 -14 -163 11 -255 57 -584 52 -841 -12 l-65 -17 -78 33 c-43
18 -76 37 -74 43 10 32 213 111 377 148 136 30 143 31 162 33 10 1 21 6 25 10
14 14 -102 3 -207 -20z"/>
<path d="M2327 2698 c-8 -68 -55 -163 -105 -211 l-38 -37 24 -73 c16 -48 25
-106 29 -172 11 -207 -55 -324 -212 -376 -46 -15 -200 -17 -332 -5 -85 8 -94
7 -127 -14 -36 -21 -62 -59 -76 -110 -7 -23 -8 -24 -14 -5 -18 52 -44 91 -76
113 -38 26 -18 25 -270 6 -194 -16 -338 59 -387 200 -27 79 -23 247 9 353 l25
82 -48 51 c-48 51 -83 123 -92 191 -3 19 -6 36 -6 37 -2 9 -116 -92 -208 -184
-104 -106 -198 -235 -260 -358 -82 -163 -140 -359 -149 -501 -5 -85 5 -60 36
90 38 179 112 368 197 503 94 147 323 392 356 379 6 -2 20 -27 30 -55 10 -28
39 -76 63 -108 33 -42 44 -64 39 -79 -44 -149 -46 -340 -5 -435 39 -91 104
-147 213 -180 55 -17 201 -20 282 -5 39 7 84 10 100 8 34 -5 105 -48 105 -64
0 -15 39 -69 50 -69 5 0 23 20 40 45 60 87 98 105 187 85 88 -21 203 -23 282
-6 178 38 265 145 278 343 4 70 -12 185 -42 288 -4 14 5 31 28 55 43 46 70 94
86 153 9 29 19 47 28 47 19 0 100 -66 178 -145 67 -67 185 -211 185 -225 0 -5
6 -15 13 -22 11 -12 27 -40 79 -138 13 -25 32 -67 42 -95 9 -27 22 -59 27 -70
13 -29 47 -163 69 -279 11 -54 22 -102 26 -105 4 -3 3 32 0 79 -24 299 -181
630 -408 863 -73 74 -228 207 -243 207 -1 0 -5 -24 -8 -52z"/>
<path d="M1760 2341 c-107 -22 -152 -72 -148 -166 l3 -60 70 -13 c187 -35 304
30 322 179 4 38 2 53 -8 60 -16 10 -187 10 -239 0z m208 -34 c29 -23 -8 -111
-65 -154 -32 -25 -46 -28 -117 -30 -84 -2 -145 15 -147 39 -8 90 48 141 171
155 83 10 138 6 158 -10z"/>
<path d="M965 2329 c-11 -17 5 -101 28 -142 12 -21 37 -48 57 -60 31 -19 48
-22 140 -21 58 1 116 5 130 11 22 9 24 15 21 59 -3 57 -31 109 -71 129 -58 30
-290 49 -305 24z m232 -30 c66 -13 113 -61 113 -115 0 -43 -26 -55 -120 -57
-79 -2 -134 22 -167 72 -29 42 -31 108 -5 114 23 5 115 -2 179 -14z"/>
<path d="M702 1762 c-51 -51 -84 -197 -82 -357 1 -131 3 -146 24 -222 23 -81
54 -158 89 -223 30 -55 105 -171 117 -180 28 -23 290 -421 323 -491 54 -118
77 -173 83 -204 5 -31 4 -35 -14 -35 -66 0 -363 102 -432 149 -14 9 -36 22
-50 29 -76 37 -238 162 -316 244 -101 107 -219 275 -269 383 -67 147 -85 203
-144 445 l-20 85 4 -75 c10 -149 70 -345 155 -506 180 -342 499 -612 855 -727
118 -38 268 -71 278 -61 6 6 -3 33 -49 159 -54 144 -124 261 -354 585 -174
245 -226 359 -250 553 -15 118 -2 252 36 367 32 94 44 108 44 49 0 -109 104
-172 321 -194 36 -4 116 -2 176 5 128 14 167 6 207 -41 14 -17 31 -49 37 -72
l12 -42 9 39 c12 54 51 102 95 117 29 9 60 9 147 -1 138 -16 292 -9 366 16 39
13 70 34 107 70 l53 52 72 -38 c198 -104 334 -304 463 -678 23 -67 44 -125 47
-127 9 -10 88 203 113 304 24 96 45 273 31 260 -7 -7 -11 -22 -31 -129 -26
-146 -86 -340 -105 -340 -9 0 -24 31 -50 105 -112 313 -271 537 -443 624 -94
48 -107 48 -153 0 -62 -64 -127 -90 -245 -96 -54 -3 -153 0 -218 6 -113 12
-121 12 -166 -8 -26 -12 -56 -31 -67 -43 -13 -16 -23 -19 -32 -13 -95 71 -92
70 -195 65 -152 -6 -290 -2 -345 10 -95 22 -164 76 -179 140 -3 14 -12 34 -20
44 -14 19 -14 19 -35 -2z"/>
<path d="M1735 990 c-18 -39 -18 -41 1 -76 64 -119 223 -277 364 -359 111 -64
282 -126 392 -141 43 -6 43 -5 106 64 61 67 152 182 152 192 0 3 -48 6 -108 6
-273 4 -554 105 -797 289 -48 36 -88 65 -89 65 -2 0 -11 -18 -21 -40z m84 -44
c35 -42 353 -216 395 -216 9 0 24 -4 34 -10 48 -26 266 -69 354 -70 51 0 78
-7 78 -21 0 -12 -117 -151 -144 -171 -20 -16 -31 -16 -82 -7 -99 18 -321 102
-344 130 -3 3 -27 18 -53 34 -59 34 -190 162 -252 246 -41 56 -55 96 -39 112
8 8 36 -7 53 -27z"/>
<path d="M1824 443 c10 -31 -11 -101 -34 -113 -26 -14 -50 -13 -110 7 -44 14
-53 15 -61 2 -13 -21 -14 -20 46 -89 70 -82 87 -113 79 -145 -9 -36 -37 -48
-95 -40 -40 6 -50 4 -55 -9 -3 -9 0 -23 7 -32 11 -13 27 -15 87 -10 78 7 270
50 285 65 13 13 -39 195 -78 277 -35 72 -85 134 -71 87z m77 -172 c11 -31 26
-80 32 -109 10 -49 10 -55 -7 -68 -21 -15 -164 -49 -172 -41 -3 3 -1 14 5 25
6 12 11 31 11 44 0 27 -32 90 -61 122 -48 50 -45 56 20 56 53 0 65 4 93 30 39
35 45 30 79 -59z"/>
</g>
</svg>
