<?xml version="1.0" standalone="no"?>
<!DOCTYPE svg PUBLIC "-//W3C//DTD SVG 20010904//EN"
 "http://www.w3.org/TR/2001/REC-SVG-20010904/DTD/svg10.dtd">
<svg version="1.0" xmlns="http://www.w3.org/2000/svg"
 width="300.000000pt" height="300.000000pt" viewBox="0 0 300.000000 300.000000"
 preserveAspectRatio="xMidYMid meet">
<metadata>
Created by potrace 1.10, written by Peter Selinger 2001-2011
</metadata>
<g transform="translate(0.000000,300.000000) scale(0.100000,-0.100000)"
fill="#000000" stroke="none">
<path d="M1040 2559 c-120 -9 -388 -45 -437 -58 l-28 -7 0 -625 c0 -656 0
-663 47 -809 80 -251 263 -451 542 -592 119 -60 296 -121 351 -121 49 1 212
53 322 104 291 134 513 372 586 630 34 119 37 173 37 793 l1 621 -89 17 c-211
40 -356 50 -792 53 -234 2 -477 -1 -540 -6z m798 -17 c68 -1 121 -5 119 -9 -3
-5 29 -9 71 -11 43 -1 129 -9 192 -17 63 -8 128 -15 145 -15 18 0 37 -8 48
-20 16 -19 18 -63 18 -608 0 -323 -3 -607 -6 -632 -7 -54 -56 -233 -65 -240
-3 -3 -17 -27 -29 -53 -73 -153 -248 -320 -441 -423 -30 -16 -57 -32 -60 -35
-3 -3 -30 -14 -60 -25 -30 -10 -56 -22 -58 -26 -2 -5 -14 -8 -26 -8 -12 0 -27
-5 -32 -10 -6 -6 -25 -12 -42 -14 -17 -3 -37 -8 -43 -12 -17 -10 -113 -6 -117
6 -2 5 -14 10 -27 10 -13 0 -37 5 -52 11 -15 6 -37 15 -48 19 -73 29 -131 53
-135 59 -3 3 -35 22 -72 40 -38 19 -68 39 -68 43 0 4 -5 8 -11 8 -32 0 -202
159 -262 245 -74 107 -107 170 -127 245 -7 25 -16 54 -21 65 -20 43 -23 130
-26 713 -3 535 -2 603 12 608 8 3 15 12 15 20 0 9 12 14 36 14 19 0 90 7 157
16 275 36 491 43 1015 36z"/>
<path d="M870 1993 c-34 -7 -50 -21 -50 -47 0 -18 -2 -19 -11 -6 -9 12 -10 11
-4 -5 3 -11 7 -115 8 -232 1 -143 6 -216 13 -223 19 -19 101 -16 124 5 17 16
20 31 20 111 0 51 4 95 9 98 4 3 32 -42 61 -99 29 -58 59 -110 67 -117 20 -16
156 -16 177 1 14 12 16 40 16 197 l0 183 53 -5 c28 -3 58 -7 65 -10 9 -2 12
-46 12 -172 0 -200 3 -207 79 -207 83 0 85 6 89 209 l3 174 47 5 c26 2 55 8
64 12 15 6 17 -7 20 -127 3 -151 16 -189 82 -242 29 -24 53 -33 114 -42 42 -6
82 -7 88 -2 6 4 23 9 38 10 14 1 26 5 26 8 0 3 13 11 30 17 17 6 41 30 60 59
l30 48 0 181 c0 211 -3 220 -73 220 -74 0 -77 -7 -78 -174 -1 -130 -3 -150
-22 -186 -19 -34 -28 -40 -58 -43 -30 -3 -39 2 -55 25 -16 24 -19 52 -22 188
-2 88 -8 165 -14 172 -17 20 -63 24 -108 9 -38 -13 -46 -13 -64 0 -29 20 -363
21 -391 0 -15 -11 -22 -11 -44 0 -32 17 -59 17 -91 1 -23 -12 -25 -18 -30
-110 -3 -53 -9 -98 -15 -100 -5 -1 -28 34 -50 78 -22 44 -47 91 -57 104 -23
32 -89 46 -158 34z m206 -198 c46 -95 84 -178 84 -184 0 -5 4 -12 10 -16 5 -3
7 65 3 185 l-6 190 51 0 52 0 0 -240 0 -240 -72 0 -73 0 -85 181 c-47 100 -86
187 -88 195 -2 8 -7 14 -10 14 -4 0 -6 -88 -4 -195 l3 -195 -50 0 -51 0 0 240
0 240 76 0 75 0 85 -175z m624 140 c0 -19 1 -38 3 -42 1 -3 -31 -5 -70 -4
l-73 2 0 -200 0 -201 -50 0 -50 0 0 201 0 201 -70 -4 -70 -3 0 43 0 42 190 0
190 0 0 -35z m165 -139 c0 -161 2 -177 21 -202 25 -35 67 -47 116 -33 61 16
68 40 68 239 l0 171 51 -3 51 -3 -1 -179 c-2 -195 -6 -213 -61 -259 -90 -76
-263 -55 -321 39 -23 37 -24 49 -27 222 l-4 182 54 0 53 0 0 -174z"/>
</g>
</svg>
