<?xml version="1.0" standalone="no"?>
<!DOCTYPE svg PUBLIC "-//W3C//DTD SVG 20010904//EN"
 "http://www.w3.org/TR/2001/REC-SVG-20010904/DTD/svg10.dtd">
<svg version="1.0" xmlns="http://www.w3.org/2000/svg"
 width="300.000000pt" height="271.000000pt" viewBox="0 0 300.000000 271.000000"
 preserveAspectRatio="xMidYMid meet">
<metadata>
Created by potrace 1.10, written by Peter Selinger 2001-2011
</metadata>
<g transform="translate(0.000000,271.000000) scale(0.100000,-0.100000)"
fill="#000000" stroke="none">
<path d="M1915 2371 c-16 -5 -64 -22 -105 -40 -49 -21 -105 -36 -160 -42 -102
-13 -147 -32 -178 -79 -20 -29 -23 -45 -20 -91 5 -67 32 -110 91 -142 41 -21
49 -22 311 -19 274 2 320 -2 359 -36 23 -20 22 -59 -2 -72 -31 -16 -219 -12
-266 6 -154 60 -138 58 -275 41 -69 -9 -153 -19 -188 -21 -60 -6 -62 -5 -58
17 16 77 16 100 2 121 -8 13 -18 40 -21 60 -4 20 -15 42 -24 49 -17 12 -21 38
-20 120 0 40 -5 52 -30 77 -36 36 -45 37 -59 5 -8 -16 -20 -25 -35 -25 -50 0
-119 -29 -162 -69 -25 -23 -54 -41 -65 -41 -28 0 -27 -49 2 -85 l22 -28 -39 7
c-38 8 -38 8 -23 -16 8 -13 28 -30 44 -38 22 -12 28 -21 26 -41 -4 -31 23 -58
40 -41 7 7 18 12 26 12 7 0 -7 -25 -33 -56 -25 -31 -49 -63 -53 -71 -8 -13
-16 -11 -58 10 -72 36 -88 58 -85 116 1 36 -4 55 -20 75 -17 22 -20 35 -15 71
7 40 10 44 39 47 26 2 33 9 41 36 6 23 15 32 31 32 12 0 34 14 50 30 16 17 35
30 42 30 7 0 32 14 55 30 22 17 52 30 65 30 12 0 23 4 23 10 0 6 -42 8 -117 4
-65 -4 -161 -6 -213 -5 -79 1 -100 -2 -127 -18 -38 -24 -50 -62 -34 -106 18
-51 14 -108 -9 -123 -11 -7 -20 -22 -20 -34 0 -12 -7 -30 -17 -40 -13 -14 -14
-23 -5 -42 6 -13 8 -34 5 -45 -4 -15 2 -30 16 -45 22 -23 22 -30 19 -187 l-3
-164 25 0 c28 0 37 26 65 188 10 54 20 95 23 93 3 -3 8 -23 11 -43 4 -26 13
-41 29 -48 15 -6 22 -18 22 -36 0 -25 26 -59 46 -59 5 0 17 -14 26 -30 18 -31
54 -40 75 -19 9 9 22 3 52 -22 l40 -34 -20 -22 c-22 -22 -129 -83 -148 -83 -6
0 -16 11 -22 23 -18 41 -61 59 -121 51 -71 -9 -93 -21 -52 -29 20 -5 30 -12
29 -23 -2 -26 -26 -65 -52 -85 -14 -11 -23 -29 -23 -45 l0 -26 21 20 20 21 29
-29 c20 -20 31 -42 35 -76 4 -26 9 -55 12 -64 7 -29 23 -21 23 12 0 25 4 30
24 30 23 0 76 49 76 71 0 5 5 9 11 9 8 0 10 -14 6 -40 -5 -41 7 -55 18 -20 13
40 56 80 85 80 16 0 32 5 35 10 3 6 22 10 40 10 26 0 39 6 51 26 13 19 23 24
41 20 12 -4 38 0 58 8 39 16 51 46 41 100 -6 33 -6 34 34 40 32 5 55 19 103
66 33 33 63 60 65 60 2 0 3 -17 1 -37 -4 -74 2 -92 52 -166 61 -91 70 -136 41
-193 -11 -21 -32 -50 -46 -63 l-25 -24 -59 27 c-34 15 -78 26 -102 26 -36 0
-47 -5 -76 -36 -33 -36 -61 -94 -45 -94 4 0 16 9 25 19 22 24 50 17 37 -8 -10
-18 -3 -137 9 -160 5 -9 10 0 15 27 6 40 8 41 43 39 40 -2 66 -26 77 -70 4
-14 13 -31 21 -38 11 -9 14 -6 14 19 0 23 6 32 28 41 28 12 62 56 62 83 0 7
11 21 24 30 32 23 51 4 36 -36 -14 -38 2 -32 38 13 20 25 32 51 32 69 0 21 6
31 20 35 13 3 22 17 26 36 4 17 10 28 14 26 5 -3 16 2 25 11 12 12 15 26 10
51 -5 29 -3 33 15 33 36 0 70 44 70 90 0 39 -1 40 -33 40 -43 0 -77 25 -77 57
0 23 3 25 28 18 15 -4 81 -8 146 -10 l119 -4 23 -53 c32 -74 31 -103 -5 -118
-40 -16 -73 -54 -73 -82 0 -26 41 -128 51 -128 3 0 6 14 6 32 0 41 19 46 35 9
6 -16 21 -38 32 -48 20 -18 20 -18 13 14 -6 29 -4 34 18 42 14 6 30 18 35 27
7 12 24 18 53 20 57 2 59 2 59 14 0 6 -9 10 -19 10 -15 0 -19 7 -19 30 1 17
-5 42 -12 56 -10 18 -11 27 -2 36 9 9 14 6 20 -12 6 -16 11 -20 16 -11 13 20
-17 102 -45 125 -14 12 -24 27 -21 34 2 7 -2 19 -8 27 -9 11 -10 18 -1 29 13
16 6 42 -15 50 -13 5 -12 9 2 30 11 18 14 35 9 57 -6 28 -10 30 -34 24 -14 -3
-54 -9 -87 -12 -64 -5 -97 4 -113 35 -8 16 0 17 112 17 111 0 126 2 164 24 43
25 73 70 73 112 0 12 -10 42 -21 66 -20 42 -21 45 -3 57 16 12 16 15 -11 32
-19 12 -46 19 -76 18 -34 0 -46 3 -42 12 7 18 -39 28 -85 18 -20 -4 -56 -6
-79 -5 -23 1 -50 -2 -61 -8 -14 -7 -29 -8 -46 -1 -18 6 -35 6 -53 -2 -16 -6
-45 -10 -65 -9 -21 1 -51 -5 -67 -14 -55 -28 -134 -10 -166 38 -20 32 -7 64
30 73 35 9 58 -12 44 -38 -13 -25 -10 -28 39 -35 34 -5 42 -2 60 22 12 15 22
34 22 41 0 17 -6 18 80 -11 97 -33 132 -32 210 8 56 28 75 32 136 31 39 -1 81
-7 93 -13 13 -7 25 -10 28 -7 13 12 -22 68 -51 83 -17 8 -39 22 -48 31 -13 11
-31 13 -67 9 -39 -5 -49 -3 -45 7 9 22 -38 66 -81 76 -46 11 -68 11 -110 1z
m122 -33 c27 -11 25 -12 -37 -19 -37 -4 -90 -19 -124 -35 l-60 -28 35 -14 c68
-28 151 -27 240 3 74 25 113 27 79 4 -13 -9 -13 -10 0 -8 39 4 70 -3 91 -19
22 -19 21 -19 -59 -14 -76 4 -85 3 -141 -27 -77 -40 -126 -40 -231 -2 l-80 30
0 -25 c0 -28 -45 -79 -60 -69 -6 3 -7 17 -4 30 12 48 -85 73 -132 34 -23 -19
-28 -74 -9 -102 36 -55 142 -77 209 -44 30 14 40 16 46 6 5 -7 15 -9 26 -4 46
19 84 23 84 9 0 -11 7 -11 41 1 54 19 89 19 89 0 0 -12 6 -12 37 5 48 26 87
27 79 3 -5 -16 1 -18 49 -15 31 2 63 1 73 -3 16 -6 15 -8 -2 -21 -19 -14 -19
-14 2 -34 27 -26 45 -90 33 -122 -22 -57 -79 -78 -211 -78 -78 0 -102 4 -119
18 -21 16 -17 17 109 17 l132 0 24 28 c17 20 23 35 18 50 -10 36 -56 77 -96
88 -23 6 -145 9 -305 7 -255 -3 -270 -2 -303 18 -71 41 -98 119 -65 184 21 40
56 56 144 64 41 4 104 19 140 33 173 68 204 74 258 51z m-970 -20 c-7 -4 -20
-8 -29 -8 -10 0 -27 -13 -40 -30 -15 -21 -30 -30 -50 -30 -22 0 -33 -8 -50
-36 -21 -35 -23 -36 -65 -30 -63 8 -103 34 -103 66 0 56 39 74 134 65 40 -3
82 -2 96 3 29 12 124 11 107 0z m252 -22 c7 -8 11 -30 9 -48 -2 -25 -8 -34
-25 -36 -30 -4 -29 -20 2 -28 13 -3 27 -15 31 -27 8 -27 -45 -77 -82 -77 -16
0 -23 -4 -18 -11 10 -16 81 -4 105 17 10 9 20 15 22 13 28 -47 28 -48 -6 -51
l-32 -4 30 -8 c40 -11 55 -24 55 -47 0 -17 -3 -16 -37 6 -50 35 -53 24 -4 -22
30 -30 39 -44 34 -61 -5 -23 -23 -31 -23 -11 0 20 -41 69 -57 69 -15 0 -15 -2
-1 -17 9 -10 26 -38 38 -62 18 -35 20 -49 11 -67 -13 -29 -31 -31 -31 -4 0 32
-55 114 -71 105 -4 -3 4 -27 19 -53 31 -55 38 -156 12 -172 -12 -8 -16 0 -21
44 -6 49 -43 125 -56 113 -2 -3 3 -26 11 -51 16 -46 21 -150 10 -180 -3 -9
-16 -16 -29 -16 -27 0 -45 41 -45 103 0 30 -3 38 -11 30 -12 -12 -8 -89 6
-132 16 -49 -20 -15 -52 49 -27 54 -33 60 -33 37 0 -15 14 -55 30 -88 l31 -60
-28 15 c-38 19 -58 43 -82 96 l-21 45 0 -41 c0 -28 -5 -44 -15 -48 -22 -8 -45
4 -45 23 0 9 -13 22 -30 28 -26 10 -30 17 -30 46 0 29 -4 36 -22 39 -15 2 -26
13 -32 33 -5 17 -13 40 -19 52 -5 12 -7 36 -3 55 9 43 9 55 0 106 -4 28 -3 42
4 42 20 0 35 -44 33 -97 -2 -46 2 -56 24 -77 15 -14 48 -35 75 -48 37 -17 50
-29 50 -45 0 -34 18 -37 25 -4 7 35 111 171 130 171 7 0 15 -6 18 -12 2 -7 8
-10 12 -6 4 3 1 19 -7 35 -12 25 -18 28 -61 26 -40 -1 -47 2 -47 18 0 18 14
23 73 22 21 0 22 16 1 45 -10 15 -26 22 -47 22 -38 0 -50 7 -66 37 -15 30 -14
43 4 43 9 0 35 18 58 39 36 33 54 42 108 50 44 7 69 17 79 30 18 24 24 25 39
7z m761 -16 c12 -7 9 -11 -13 -19 -36 -14 -174 -14 -182 -1 -3 6 -3 10 2 10 4
1 31 7 58 15 49 14 105 12 135 -5z m-1269 -126 c11 -6 -3 -64 -15 -64 -8 0
-11 -11 -8 -30 3 -18 0 -30 -7 -30 -6 0 -11 8 -11 18 0 10 -7 27 -15 38 -8 10
-15 34 -15 52 0 33 1 33 33 27 17 -4 35 -9 38 -11z m-77 -80 c20 -20 20 -33 0
-41 -21 -8 -46 19 -38 40 8 21 18 21 38 1z m376 -19 c-3 -5 -14 -9 -25 -9 -75
3 -80 4 -65 14 19 13 97 8 90 -5z m-367 -79 c14 -35 -45 -30 -63 5 -6 11 -8
24 -5 29 8 13 61 -14 68 -34z m43 20 c3 -14 2 -31 -2 -37 -4 -7 -9 -26 -11
-43 -4 -39 -11 -44 -22 -15 -6 18 -5 29 7 42 15 17 15 21 0 48 -16 28 -16 29
2 29 12 0 22 -9 26 -24z m-81 -68 c26 -12 35 -38 13 -38 -18 0 -33 12 -41 33
-8 20 -6 21 28 5z m1160 -75 c47 -24 72 -51 100 -108 17 -37 35 -57 55 -65 36
-15 101 -18 153 -7 29 6 37 5 37 -6 0 -17 -22 -37 -47 -42 -10 -2 -20 -4 -23
-5 -3 -1 11 -7 30 -14 41 -15 50 -51 13 -51 -35 -1 -36 -11 -3 -25 30 -12 40
-35 19 -42 -6 -2 7 -15 28 -28 57 -37 52 -74 -11 -95 -18 -5 -17 -8 11 -24 55
-34 50 -109 -6 -94 -13 3 -20 -2 -25 -20 -6 -24 -40 -42 -58 -31 -4 3 -8 19
-8 37 l0 32 -26 -28 c-28 -31 -44 -28 -44 8 0 18 11 32 40 50 22 14 45 25 51
25 19 0 4 98 -25 162 l-25 56 -94 -5 c-104 -6 -171 5 -254 44 -56 26 -109 79
-119 118 -8 31 -32 45 -76 44 l-33 -1 32 -9 c37 -11 61 -45 44 -62 -9 -9 -49
-2 -96 19 -6 2 -19 -12 -29 -31 -35 -65 -122 -115 -198 -115 -32 0 -46 -5 -56
-20 -11 -19 -10 -20 22 -20 35 0 46 -13 46 -50 0 -36 -84 -57 -96 -25 -10 25
-20 17 -30 -22 -10 -43 -46 -57 -68 -27 -12 16 -14 15 -19 -8 -8 -32 -32 -42
-51 -23 -19 20 -23 19 -29 -5 -7 -28 -37 -37 -53 -16 -11 16 -14 14 -30 -19
-18 -39 -57 -71 -74 -60 -13 8 -13 52 0 60 20 12 9 25 -15 19 -52 -13 -73 39
-32 80 18 18 21 27 13 39 -8 12 -7 20 2 29 19 19 65 -10 77 -50 5 -19 16 -32
26 -32 31 0 154 69 213 121 33 28 77 57 98 66 25 10 40 23 44 39 4 13 19 32
34 41 29 17 50 51 50 82 0 10 11 28 24 40 14 13 26 33 28 44 3 19 9 21 48 19
41 -3 102 4 245 28 61 10 130 3 170 -17z m-1124 -133 c-14 -82 -28 -146 -32
-142 -6 7 9 252 17 280 2 6 12 12 21 12 18 0 17 -8 -6 -150z m925 -120 c24
-22 55 -45 68 -51 19 -9 24 -19 24 -46 0 -43 32 -79 78 -87 56 -11 38 -70 -26
-82 -29 -6 -32 -10 -27 -38 7 -49 -1 -60 -29 -41 l-24 15 7 -46 c6 -47 6 -47
-20 -40 -24 6 -25 4 -21 -26 3 -20 0 -40 -9 -52 -14 -19 -15 -19 -22 3 -3 12
-10 21 -13 19 -46 -21 -92 -56 -92 -71 0 -50 -51 -87 -82 -59 -10 8 -18 26
-18 40 0 20 -3 22 -14 13 -16 -14 -67 -18 -85 -7 -21 13 -12 54 17 75 l27 20
-36 1 c-40 0 -57 21 -33 41 28 23 123 2 186 -43 15 -11 24 -7 59 27 98 95 103
167 21 292 -44 66 -52 84 -52 124 0 44 2 48 28 52 15 2 31 5 36 6 5 0 28 -17
52 -39z"/>
<path d="M1120 2189 c0 -24 28 -31 67 -18 51 16 42 36 -17 35 -39 -1 -50 -4
-50 -17z"/>
<path d="M370 771 c0 -5 6 -11 14 -14 11 -4 13 -18 9 -56 -3 -27 0 -65 6 -84
19 -56 86 -74 135 -36 24 19 26 26 26 100 0 64 3 79 15 79 8 0 15 5 15 10 0 6
-18 10 -40 10 -22 0 -40 -4 -40 -10 0 -5 7 -10 15 -10 12 0 15 -15 15 -72 0
-40 -4 -80 -9 -87 -6 -9 -25 -15 -46 -15 -21 0 -40 6 -46 15 -5 7 -9 47 -9 87
0 57 3 72 15 72 8 0 15 5 15 10 0 6 -20 10 -45 10 -25 0 -45 -4 -45 -9z"/>
<path d="M610 771 c0 -6 7 -11 15 -11 12 0 15 -17 15 -90 0 -73 -3 -90 -15
-90 -8 0 -15 -4 -15 -9 0 -5 20 -9 45 -9 46 0 60 12 25 21 -18 5 -20 14 -20
81 0 42 2 76 4 76 2 0 32 -40 67 -90 35 -49 67 -90 71 -90 5 0 8 45 8 100 0
60 4 100 10 100 6 0 10 5 10 10 0 6 -18 10 -40 10 -22 0 -40 -4 -40 -10 0 -5
6 -10 14 -10 8 0 16 -17 20 -46 12 -89 8 -90 -47 -13 -48 67 -57 74 -90 77
-21 2 -37 -1 -37 -7z"/>
<path d="M860 770 c0 -5 7 -10 15 -10 12 0 15 -17 15 -90 0 -73 -3 -90 -15
-90 -8 0 -15 -3 -15 -7 0 -5 23 -8 50 -9 28 0 50 3 50 8 0 4 -7 8 -15 8 -12 0
-15 17 -15 90 0 73 3 90 15 90 8 0 15 5 15 10 0 6 -22 10 -50 10 -27 0 -50 -4
-50 -10z"/>
<path d="M970 770 c0 -5 6 -10 14 -10 7 0 29 -42 52 -100 21 -55 43 -99 48
-97 4 1 26 45 48 97 21 52 43 97 48 98 23 8 7 22 -25 22 -19 0 -35 -4 -35 -10
0 -5 6 -10 13 -10 10 0 7 -19 -12 -75 -14 -41 -28 -71 -32 -67 -3 4 -16 36
-29 72 -15 43 -19 65 -11 68 27 9 7 22 -34 22 -25 0 -45 -4 -45 -10z"/>
<path d="M1210 770 c0 -5 7 -10 15 -10 12 0 15 -17 15 -90 0 -73 -3 -90 -15
-90 -8 0 -15 -4 -15 -8 0 -5 39 -8 87 -8 l87 1 7 35 c7 35 1 58 -9 31 -10 -29
-43 -51 -77 -51 -34 0 -35 1 -35 39 0 49 17 62 42 31 l18 -22 -1 48 c0 43 -2
46 -11 27 -6 -13 -19 -23 -30 -23 -14 0 -18 8 -18 40 0 39 1 40 34 40 26 0 40
-7 55 -27 l21 -28 -2 35 -3 35 -82 3 c-53 2 -83 -1 -83 -8z"/>
<path d="M1430 770 c0 -5 7 -10 15 -10 12 0 15 -17 15 -90 0 -73 -3 -90 -15
-90 -8 0 -15 -4 -15 -8 0 -5 20 -9 45 -9 25 0 45 4 45 9 0 4 -7 8 -15 8 -11 0
-15 11 -15 41 0 36 2 40 23 37 15 -2 28 -17 41 -45 13 -27 28 -44 44 -48 25
-6 46 4 24 12 -7 3 -22 22 -32 44 -11 21 -26 39 -33 39 -6 1 0 8 16 16 39 21
38 68 -3 89 -32 17 -140 21 -140 5z m129 -32 c14 -39 2 -58 -35 -58 -33 0 -34
1 -34 40 0 38 2 40 30 40 22 0 33 -6 39 -22z"/>
<path d="M1687 767 c-13 -9 -18 -23 -15 -47 3 -31 9 -38 53 -60 50 -25 69 -55
43 -71 -31 -20 -48 -12 -93 46 -15 19 -15 18 -13 -20 2 -48 8 -62 18 -45 6 9
12 9 29 0 46 -24 101 8 101 58 0 24 -37 59 -72 67 -38 10 -54 31 -38 50 19 23
46 18 68 -12 24 -33 33 -29 24 12 -6 27 -12 30 -47 33 -22 2 -48 -3 -58 -11z"/>
<path d="M1850 770 c0 -5 7 -10 15 -10 12 0 15 -17 15 -90 0 -73 -3 -90 -15
-90 -8 0 -15 -4 -15 -8 0 -5 23 -8 50 -8 49 0 66 9 33 18 -16 4 -18 16 -15 91
3 67 7 87 18 87 8 0 14 5 14 10 0 6 -22 10 -50 10 -27 0 -50 -4 -50 -10z"/>
<path d="M1976 749 c-8 -42 -8 -49 3 -49 5 0 14 14 21 30 8 18 20 30 31 30 17
0 19 -9 19 -90 0 -86 -1 -90 -22 -90 -12 0 -18 -3 -14 -7 10 -11 106 -12 106
-1 0 4 -7 8 -15 8 -12 0 -15 17 -15 90 0 73 3 90 15 90 8 0 21 -13 30 -30 9
-16 18 -30 20 -30 3 0 5 18 5 40 l0 40 -89 0 -88 0 -7 -31z"/>
<path d="M2170 770 c0 -5 6 -10 13 -10 24 -1 77 -97 77 -140 0 -29 -4 -40 -15
-40 -8 0 -15 -4 -15 -8 0 -5 23 -8 50 -8 28 0 50 3 50 8 0 4 -7 8 -15 8 -11 0
-15 11 -15 39 0 44 53 141 76 141 8 0 14 5 14 10 0 6 -18 10 -40 10 -37 0 -55
-13 -29 -22 11 -4 -18 -78 -30 -78 -6 0 -51 66 -51 75 0 3 7 5 15 5 8 0 15 5
15 10 0 6 -22 10 -50 10 -27 0 -50 -4 -50 -10z"/>
<path d="M2565 756 c-14 -14 -25 -32 -25 -40 0 -8 -8 -20 -17 -25 -11 -7 -13
-11 -5 -11 8 0 11 -7 8 -17 -3 -10 -10 -37 -16 -61 -8 -33 -15 -42 -29 -40
-10 2 -19 -1 -19 -7 -1 -5 10 -10 25 -10 31 0 46 23 63 93 8 32 16 42 30 42
11 0 20 5 20 10 0 6 -7 10 -15 10 -19 0 -19 20 -1 46 15 19 15 19 31 -1 15
-20 16 -20 13 5 -4 34 -32 37 -63 6z"/>
<path d="M2412 707 c-36 -38 -24 -97 18 -97 45 0 83 99 44 114 -27 10 -40 7
-62 -17z m58 -2 c0 -3 -7 -21 -14 -40 -25 -58 -49 -40 -26 19 8 22 40 38 40
21z"/>
<path d="M709 378 c-27 -64 -50 -103 -61 -106 -35 -9 -17 -22 30 -22 42 1 45
2 29 14 -15 12 -16 18 -6 40 10 21 19 26 49 26 30 0 39 -5 48 -25 15 -33 15
-35 -3 -35 -8 0 -15 -4 -15 -10 0 -5 23 -10 50 -10 28 0 50 5 50 10 0 6 -6 10
-14 10 -8 0 -31 43 -57 105 -24 58 -46 105 -49 105 -4 0 -27 -46 -51 -102z
m54 25 c2 -10 8 -26 12 -35 6 -15 2 -18 -23 -18 -30 0 -30 0 -19 35 11 38 22
45 30 18z"/>
<path d="M1673 468 c-5 -7 -27 -55 -49 -105 -21 -51 -44 -93 -51 -93 -6 0 -15
-4 -18 -10 -4 -6 12 -10 39 -10 25 0 46 5 46 10 0 6 -7 10 -15 10 -18 0 -18 2
-3 35 9 20 18 25 50 25 32 0 40 -4 48 -26 13 -33 13 -34 -5 -34 -8 0 -15 -4
-15 -10 0 -5 23 -10 50 -10 28 0 50 5 50 10 0 6 -6 10 -13 10 -8 0 -30 43 -52
98 -44 111 -48 118 -62 100z m23 -115 c-2 -3 -15 -3 -28 -1 -24 3 -24 4 -10
38 l14 35 14 -34 c8 -19 12 -36 10 -38z"/>
<path d="M2449 413 c-17 -37 -38 -85 -46 -105 -8 -21 -21 -38 -29 -38 -8 0
-14 -4 -14 -10 0 -5 18 -10 40 -10 22 0 40 5 40 10 0 6 -6 10 -14 10 -12 0
-12 5 -3 30 10 26 16 30 49 30 32 0 41 -5 50 -26 10 -20 9 -27 -2 -34 -24 -15
-5 -21 46 -17 35 2 43 6 29 11 -14 5 -33 39 -60 107 -22 56 -43 103 -48 106
-4 2 -21 -26 -38 -64z m45 -40 c6 -20 4 -23 -18 -23 -29 0 -31 7 -14 45 12 27
19 23 32 -22z"/>
<path d="M390 430 c0 -48 5 -50 24 -11 9 16 24 31 36 34 19 5 20 1 20 -89 0
-87 -1 -94 -20 -94 -11 0 -20 -4 -20 -10 0 -5 25 -10 55 -10 30 0 55 5 55 10
0 6 -7 10 -15 10 -12 0 -15 17 -15 94 0 88 1 94 19 89 11 -3 25 -18 31 -34 15
-34 35 -39 26 -6 -3 12 -6 30 -6 40 0 15 -11 17 -95 17 l-95 0 0 -40z"/>
<path d="M977 452 c-36 -39 -20 -70 57 -107 32 -16 41 -26 41 -45 0 -22 -4
-25 -35 -25 -27 0 -38 6 -56 32 -12 18 -23 30 -26 28 -7 -8 4 -85 13 -85 5 0
9 5 9 12 0 9 3 9 12 0 7 -7 28 -12 48 -12 48 0 73 26 68 72 -3 33 -5 35 -98
78 -26 12 -18 45 11 48 19 2 33 -4 48 -24 25 -32 33 -28 25 12 -5 27 -9 29
-53 32 -36 2 -51 -2 -64 -16z"/>
<path d="M1210 460 c0 -5 7 -10 15 -10 12 0 15 -17 15 -90 0 -73 -3 -90 -15
-90 -8 0 -15 -4 -15 -10 0 -5 18 -10 40 -10 22 0 40 5 40 10 0 6 -6 10 -14 10
-11 0 -15 19 -18 83 -2 45 -3 83 -2 85 1 2 17 -37 37 -85 19 -48 39 -89 45
-91 5 -1 25 38 42 88 18 49 34 90 36 90 2 0 4 -38 4 -85 0 -69 -3 -85 -15 -85
-8 0 -15 -4 -15 -10 0 -5 23 -10 50 -10 28 0 50 5 50 10 0 6 -6 10 -14 10 -11
0 -15 20 -18 85 -3 77 -1 87 17 100 18 13 16 14 -26 14 l-45 1 -19 -52 c-40
-114 -33 -112 -66 -25 l-30 77 -40 0 c-21 0 -39 -4 -39 -10z"/>
<path d="M1875 461 c3 -6 13 -11 21 -11 11 0 14 -18 14 -89 0 -83 -1 -89 -22
-96 -22 -8 -22 -8 5 -12 15 -2 39 -2 55 0 25 4 25 5 6 11 -19 7 -22 17 -26 89
-3 45 -4 83 -3 85 1 1 32 -41 69 -93 37 -52 72 -95 77 -95 5 0 9 43 9 96 0 80
3 99 18 110 15 12 11 13 -30 14 -27 0 -48 -4 -48 -10 0 -5 6 -10 14 -10 14 0
26 -48 26 -104 0 -26 -5 -22 -53 45 -50 70 -55 74 -96 77 -28 2 -41 0 -36 -7z"/>
<path d="M2190 460 c0 -5 7 -10 15 -10 12 0 15 -17 15 -90 0 -73 -3 -90 -15
-90 -8 0 -15 -4 -15 -10 0 -5 25 -10 56 -10 34 0 53 4 49 10 -3 6 -13 10 -21
10 -11 0 -14 18 -14 90 0 72 3 90 14 90 8 0 18 5 21 10 4 6 -15 10 -49 10 -31
0 -56 -4 -56 -10z"/>
</g>
</svg>
